<svg xmlns="http://www.w3.org/2000/svg" version="1.0" width="340pt" height="362pt" viewBox="0 0 340 362">
  <path d="M319 7a794 794 0 01-37.5 8.4c-32.1 6.3-37.2 8.2-51.5 18.8a92.9 92.9 0 00-34.4 70.8c.1 10.1 1.6 17.3 3.3 15.4a152.6 152.6 0 0141.9-55.6c7.7-6.2 23.2-12.3 23.2-9.1 0 1.1-5.3 7.7-11.6 14.3-5.9 6.3-7.9 8.9-19 25a398.2 398.2 0 00-36.6 74c-9.8 26.1-17 46.9-21.8 62.5-8.1 26.7-15.4 47.8-16.7 48.2-1.6.6-6-13.7-15.2-49.2-14.3-55.6-20.4-74.7-35-109.5-10-23.7-23.2-42.7-50-71.8C43.4 33.1 22.5 17.7 9.9 13.5 1.7 10.7 1 12.1 7.2 19a407.8 407.8 0 0164 92c15.1 29.5 25.5 58.8 44.4 126a1633 1633 0 0118.8 78c3.8 18.9 8 37.4 9.1 40.3.4.9 1.9 2.1 3.4 2.5 3.4.9 19.8.9 23.3 0 5.2-1.5 6.2-5.6 13.4-52.8 4.8-31.9 8.9-51 17.1-79.5 13.9-48.6 28.7-84.2 37.7-90 1.3-.8 7.7-2.4 14.4-3.5a97 97 0 0061.7-34.1c9.9-12.2 12.5-21.2 15-51.2 1.3-15.9 2.1-20.4 5.1-29.9a64.4 64.4 0 003-12.5c-.7-1.8-2.3-1.6-18.6 2.7z" fill="#017f00"/>
</svg>
