<?xml version="1.0" standalone="no"?>
<!DOCTYPE svg PUBLIC "-//W3C//DTD SVG 20010904//EN"
 "http://www.w3.org/TR/2001/REC-SVG-20010904/DTD/svg10.dtd">
<svg version="1.0" xmlns="http://www.w3.org/2000/svg"
 width="966.000000pt" height="966.000000pt" viewBox="0 0 966.000000 966.000000"
 preserveAspectRatio="xMidYMid meet">
<metadata>
Created by potrace 1.11, written by Peter Selinger 2001-2013
</metadata>
<g transform="translate(0.000000,966.000000) scale(0.100000,-0.100000)"
fill="#000000" stroke="none">
<path d="M9210 9569 c-68 -11 -79 -13 -200 -43 -8 -2 -44 -12 -80 -21 -36 -10
-74 -18 -85 -19 -11 0 -22 -4 -25 -8 -5 -6 -35 -14 -85 -22 -11 -2 -49 -11
-85 -21 -36 -9 -74 -19 -85 -21 -56 -11 -66 -13 -74 -18 -4 -3 -23 -8 -42 -10
-19 -3 -135 -28 -259 -56 -124 -28 -236 -52 -250 -54 -14 -2 -59 -11 -100 -21
-41 -9 -88 -18 -105 -20 -16 -3 -41 -7 -55 -10 -14 -3 -36 -8 -50 -11 -14 -3
-33 -7 -43 -10 -10 -3 -30 -7 -45 -9 -15 -2 -49 -9 -77 -15 -27 -7 -62 -14
-76 -16 -15 -3 -89 -21 -165 -40 -77 -20 -145 -36 -151 -36 -7 -1 -13 -5 -13
-10 0 -5 -4 -7 -10 -3 -5 3 -17 1 -27 -4 -25 -12 -165 -65 -182 -67 -8 -2 -18
-9 -22 -16 -5 -7 -9 -10 -9 -6 0 4 -29 -9 -65 -28 -284 -154 -540 -382 -759
-679 -36 -49 -71 -96 -77 -102 -5 -7 -8 -13 -5 -13 3 0 -11 -24 -30 -52 -19
-29 -34 -58 -34 -64 0 -7 -4 -14 -8 -16 -17 -6 -168 -328 -155 -328 3 0 0 -6
-6 -13 -6 -8 -8 -17 -4 -20 3 -4 1 -7 -5 -7 -7 0 -11 -3 -10 -7 0 -5 -1 -15
-4 -23 -8 -21 -42 -133 -44 -145 -1 -5 -7 -30 -14 -55 -13 -49 -19 -72 -26
-110 -2 -14 -7 -36 -9 -50 -55 -273 -51 -694 7 -800 22 -40 35 -34 63 28 105
226 321 602 347 602 4 0 7 3 6 8 -2 7 24 50 49 82 7 8 33 42 58 75 65 86 95
122 188 230 56 64 333 345 340 345 5 0 36 26 110 92 23 21 47 38 54 38 6 0 13
4 15 8 5 13 103 69 211 121 153 74 292 112 327 91 12 -7 10 -16 -10 -51 -13
-24 -31 -52 -41 -63 -9 -12 -43 -52 -76 -91 -32 -38 -71 -84 -88 -101 -161
-167 -303 -340 -402 -489 -15 -22 -32 -45 -37 -50 -6 -6 -15 -18 -21 -27 -11
-18 -190 -286 -203 -303 -4 -5 -14 -23 -22 -40 -8 -16 -17 -32 -20 -35 -5 -4
-80 -132 -152 -258 -117 -205 -423 -807 -433 -852 0 -3 -12 -27 -25 -55 -13
-27 -24 -52 -25 -55 -4 -11 -19 -47 -35 -85 -24 -54 -105 -254 -137 -335 -14
-36 -29 -74 -33 -85 -4 -11 -18 -47 -30 -80 -12 -33 -26 -69 -31 -80 -8 -19
-69 -186 -91 -250 -5 -16 -16 -43 -23 -60 -7 -16 -18 -48 -25 -70 -7 -22 -17
-46 -23 -52 -5 -7 -7 -13 -4 -13 4 0 -2 -20 -13 -45 -11 -25 -17 -45 -13 -45
3 0 1 -6 -4 -12 -9 -11 -33 -74 -39 -100 -1 -5 -3 -10 -4 -13 -1 -3 -3 -8 -4
-12 -1 -5 -4 -12 -7 -18 -11 -17 -63 -180 -61 -187 1 -5 -3 -8 -8 -8 -6 0 -10
-6 -9 -12 1 -7 -1 -20 -4 -28 -12 -29 -49 -135 -54 -155 -3 -11 -11 -34 -19
-52 -8 -17 -14 -36 -14 -41 0 -5 -19 -65 -41 -133 -23 -68 -42 -128 -43 -134
-2 -10 -80 -256 -116 -367 -10 -31 -16 -59 -12 -62 3 -3 -1 -6 -8 -6 -7 0 -11
-3 -7 -6 3 -3 -2 -29 -13 -58 -10 -28 -37 -112 -60 -186 -24 -74 -47 -141 -53
-147 -5 -7 -7 -13 -4 -13 4 0 -16 -64 -44 -143 -28 -78 -51 -146 -53 -152 -2
-5 -6 -17 -9 -25 -4 -8 -16 -42 -28 -75 -12 -33 -26 -65 -31 -72 -5 -7 -7 -16
-4 -22 4 -5 0 -16 -8 -23 -7 -8 -17 -24 -20 -36 -20 -62 -60 7 -127 217 -60
191 -76 243 -84 276 -5 17 -9 35 -11 40 -1 6 -20 75 -43 155 -32 118 -88 325
-107 400 -10 41 -35 137 -39 150 -6 22 -43 160 -44 165 -1 3 -1 6 -2 8 0 1 -2
9 -4 17 -2 8 -18 69 -35 135 -18 66 -33 127 -35 135 -2 8 -13 51 -25 95 -12
44 -30 112 -40 152 -10 39 -20 76 -23 80 -3 5 -8 20 -10 34 -3 13 -10 42 -16
64 -6 22 -11 43 -11 47 0 4 -7 26 -15 49 -9 23 -17 52 -19 63 -2 12 -13 53
-25 91 -11 39 -22 79 -23 90 -2 11 -6 25 -10 30 -3 6 -9 26 -13 45 -4 19 -10
40 -13 45 -4 6 -7 15 -8 20 -1 6 -16 57 -33 115 -18 58 -34 112 -36 120 -2 8
-15 48 -29 88 -14 39 -23 72 -20 72 2 0 -2 13 -11 30 -8 16 -15 32 -15 35 0 8
-4 23 -14 50 -29 76 -35 95 -29 95 4 0 2 5 -5 12 -7 7 -12 18 -12 24 0 7 -5
25 -12 41 -6 15 -12 30 -13 33 -1 3 -7 18 -13 33 -7 16 -12 31 -12 35 0 6 -43
125 -60 167 -4 11 -27 70 -50 130 -23 61 -51 130 -62 155 -11 25 -21 50 -22
55 -2 11 -94 235 -163 395 -25 58 -176 365 -182 370 -3 3 -14 21 -24 40 -42
82 -51 96 -70 118 -11 12 -18 22 -14 22 8 0 -104 174 -115 178 -4 2 -8 8 -8
12 0 10 -135 205 -157 228 -7 7 -20 26 -30 42 -9 17 -21 30 -25 30 -4 0 -8 5
-8 10 0 9 -29 46 -66 84 -6 6 -13 16 -15 22 -2 6 -22 33 -44 59 -53 64 -170
204 -198 236 -44 50 -132 152 -157 179 -14 15 -56 63 -95 106 -111 124 -392
404 -406 404 -7 0 -9 3 -6 6 3 4 -12 20 -33 35 -22 16 -40 34 -40 41 0 6 -3 9
-6 6 -3 -3 -17 5 -31 18 -15 14 -40 35 -56 47 -76 58 -142 113 -145 120 -2 4
-8 7 -13 7 -11 0 -92 60 -97 73 -2 4 -8 7 -13 7 -5 0 -30 15 -56 34 -70 50
-216 136 -310 183 -69 35 -199 88 -225 92 -5 0 -9 1 -10 2 -4 1 -49 9 -73 13
-62 10 -44 -60 35 -144 8 -9 42 -46 75 -84 33 -37 78 -87 100 -110 22 -24 56
-63 77 -87 20 -24 46 -55 58 -69 12 -14 38 -45 58 -69 21 -25 45 -53 55 -63 9
-10 17 -21 17 -24 0 -3 6 -11 13 -18 16 -17 56 -65 147 -181 39 -49 76 -97 83
-105 63 -80 137 -182 137 -189 0 -5 3 -11 8 -13 4 -1 28 -32 54 -68 26 -36 51
-69 55 -75 5 -5 58 -84 118 -175 61 -90 114 -169 118 -175 15 -19 117 -180
124 -194 3 -8 35 -61 70 -118 35 -57 63 -108 63 -113 0 -6 5 -10 10 -10 6 0
10 -4 10 -9 0 -5 20 -44 45 -85 25 -42 45 -79 45 -81 0 -3 11 -23 25 -45 14
-22 23 -40 19 -40 -3 0 2 -7 10 -16 9 -8 16 -22 16 -30 0 -8 5 -14 12 -14 6 0
8 -3 5 -6 -4 -4 2 -19 13 -34 11 -15 17 -30 13 -34 -3 -3 -2 -6 3 -6 5 0 54
-91 109 -202 55 -112 103 -205 106 -208 4 -4 30 -62 35 -80 11 -36 18 -50 25
-50 5 0 9 -6 9 -13 0 -8 6 -27 14 -43 8 -16 28 -63 46 -104 18 -41 38 -88 46
-105 29 -66 85 -207 139 -350 30 -82 60 -159 65 -170 15 -34 81 -229 86 -255
3 -13 9 -29 13 -35 6 -8 123 -354 126 -375 0 -3 11 -35 23 -72 12 -37 22 -74
22 -83 0 -8 5 -15 12 -15 6 0 9 -2 6 -6 -3 -3 1 -26 9 -52 36 -116 139 -455
153 -507 4 -16 20 -68 34 -115 15 -47 29 -93 31 -104 8 -32 36 -130 42 -146 3
-8 8 -24 10 -35 6 -26 9 -37 15 -55 6 -16 37 -125 43 -151 2 -9 13 -49 26 -90
12 -41 24 -78 25 -84 1 -5 5 -21 8 -35 3 -14 19 -77 36 -140 35 -126 40 -146
46 -175 2 -11 15 -63 30 -115 14 -52 28 -104 29 -115 2 -11 8 -35 14 -52 5
-18 8 -33 6 -33 -3 0 0 -12 6 -27 6 -16 13 -38 15 -49 2 -12 16 -66 30 -120
14 -55 27 -108 29 -119 2 -11 23 -103 48 -205 25 -102 48 -197 51 -213 2 -15
7 -35 10 -45 3 -9 7 -28 10 -42 3 -14 8 -36 11 -50 3 -14 8 -36 11 -50 3 -14
7 -29 8 -35 24 -96 54 -229 59 -260 3 -16 17 -82 31 -145 15 -63 28 -128 30
-145 2 -16 7 -37 10 -45 8 -22 24 -103 31 -158 2 -18 7 -37 10 -43 4 -6 9 -25
12 -42 2 -18 13 -70 24 -117 12 -47 23 -98 26 -115 2 -16 16 -77 29 -135 13
-58 27 -116 30 -130 3 -14 7 -32 9 -40 21 -90 50 -179 63 -194 43 -48 118 -59
402 -58 219 0 278 5 327 28 41 20 82 76 98 134 0 3 9 32 19 65 18 61 22 76 31
130 3 17 8 37 10 45 5 17 14 63 20 100 2 14 15 90 29 170 14 80 28 168 32 195
3 28 7 52 9 55 2 3 6 29 10 59 4 30 9 63 11 75 2 12 9 53 14 91 6 39 13 84 16
100 3 17 7 41 9 55 8 66 18 126 22 133 2 4 6 31 9 60 2 28 6 61 8 72 2 11 7
40 11 65 4 25 9 54 11 65 2 10 6 35 9 55 3 20 8 47 10 60 3 14 8 48 11 75 4
28 8 53 10 56 2 4 6 24 9 45 3 22 10 62 16 90 5 28 12 64 15 80 2 16 7 40 9
54 3 14 8 36 10 50 7 37 22 100 25 110 1 3 2 8 1 13 -1 4 4 28 10 55 19 83 25
113 48 217 10 50 17 78 26 115 3 11 7 29 10 40 3 11 7 29 10 40 11 44 16 66
21 90 3 14 7 32 9 40 2 8 4 15 5 15 1 0 3 9 5 19 6 29 45 179 52 196 3 8 8 24
10 35 8 38 11 50 13 50 1 0 3 7 5 15 8 36 97 349 110 385 8 22 17 51 19 65 11
59 236 757 256 792 6 10 10 22 10 28 0 6 16 55 36 108 36 100 45 123 46 132 1
3 14 37 30 75 17 39 31 75 32 82 1 7 5 16 9 19 4 4 7 16 7 26 0 10 5 18 12 18
6 0 9 3 6 6 -5 5 45 132 100 254 9 19 16 37 17 40 0 3 20 44 43 93 23 48 41
90 41 93 0 4 3 10 8 13 5 3 22 33 38 66 42 84 156 253 202 297 34 33 143 87
143 72 0 -4 7 0 17 7 9 8 18 12 20 11 4 -4 94 11 108 18 7 4 15 5 68 14 27 4
57 9 67 11 9 2 35 6 56 9 22 3 50 8 64 11 14 2 36 7 50 9 14 2 54 12 90 21 36
9 74 18 86 20 11 3 50 14 85 26 35 11 71 22 79 24 63 15 422 179 428 196 2 5
8 9 14 9 26 0 283 176 391 268 51 43 297 290 297 297 0 4 8 15 18 24 10 9 35
41 57 71 22 30 42 57 45 60 3 3 11 16 18 30 14 29 35 63 43 70 19 17 86 185
116 290 27 95 27 97 39 160 4 25 8 47 9 50 1 3 5 30 9 60 5 30 10 64 12 75 2
11 7 43 10 70 3 28 7 61 9 75 2 14 7 54 10 90 3 36 8 83 11 105 6 50 14 141
19 225 2 36 5 65 5 65 1 0 3 16 5 36 2 33 9 94 21 194 9 82 43 239 74 350 16
57 41 140 47 155 3 8 7 20 9 25 7 24 16 61 18 75 2 8 6 29 9 45 24 105 26 123
13 133 -20 16 -40 18 -86 11z"/>
</g>
</svg>
